# xmcd CD database file
#
# Track frame offsets:
#	150
#	19440
#	38175
#	53787
#	72875
#	89192
#	99450
#	119325
#	135000
#	150987
#	206900
#	222462
#	237075
#	256137
#	270337
#
# Disc length: 3865 seconds
#
# Revision: 0
# Processed by: cddbd v1.5.1PL0 Copyright (c) Steve Scherf et al.
# Submitted via: CDex 1.51
#
DISCID=d00f170f
DTITLE=Various Artist - Blues Jams
DYEAR=1998
DGENRE=Blues
TTITLE0=When I lost My Baby-J. Davis
TTITLE1=Everyday I Have The Blues-J. Davis
TTITLE2=Georgia On My Mind-J. Davis
TTITLE3=Blues For Jimmy-J. Davis
TTITLE4=Baby, Won't You Please Come Home-J. Davis
TTITLE5=How Long Blues-J. Davis
TTITLE6=Heaven Blues-J. Davis
TTITLE7=Summertime-J. Davis
TTITLE8=St. James Infirmary-J. Davis
TTITLE9=The Shout-L. McCann
TTITLE10=Lord Search My Heart-G. Davis
TTITLE11=Sonyy Go Down-G. Davis
TTITLE12=Right Now-G. Davis
TTITLE13=You Got To Go Down-G. Davis
TTITLE14=Let Us Get Together-G. Davis
EXTD=YEAR: 1998
EXTT0=
EXTT1=
EXTT2=
EXTT3=
EXTT4=
EXTT5=
EXTT6=
EXTT7=
EXTT8=
EXTT9=
EXTT10=
EXTT11=
EXTT12=
EXTT13=
EXTT14=
PLAYORDER=
